<svg width="17" height="22" viewBox="0 0 17 22" fill="none" xmlns="http://www.w3.org/2000/svg">
<path d="M8.71351 16.602C8.19575 16.602 7.69919 16.3943 7.33307 16.0246C6.96695 15.6549 6.76127 15.1535 6.76127 14.6306C6.76127 13.5365 7.63002 12.6593 8.71351 12.6593C9.23128 12.6593 9.72784 12.867 10.094 13.2367C10.4601 13.6064 10.6658 14.1078 10.6658 14.6306C10.6658 15.1535 10.4601 15.6549 10.094 16.0246C9.72784 16.3943 9.23128 16.602 8.71351 16.602ZM14.5702 19.5591V9.70222H2.85678V19.5591H14.5702ZM14.5702 7.73085C15.088 7.73085 15.5846 7.93855 15.9507 8.30825C16.3168 8.67796 16.5225 9.17938 16.5225 9.70222V19.5591C16.5225 20.0819 16.3168 20.5833 15.9507 20.953C15.5846 21.3227 15.088 21.5304 14.5702 21.5304H2.85678C2.33902 21.5304 1.84246 21.3227 1.47634 20.953C1.11022 20.5833 0.904541 20.0819 0.904541 19.5591V9.70222C0.904541 8.60811 1.77329 7.73085 2.85678 7.73085H3.83291V5.75948C3.83291 4.45238 4.34711 3.19882 5.2624 2.27456C6.1777 1.3503 7.4191 0.831055 8.71351 0.831055C9.35445 0.831055 9.9891 0.958532 10.5812 1.20621C11.1734 1.45389 11.7114 1.81691 12.1646 2.27456C12.6178 2.7322 12.9773 3.27551 13.2226 3.87345C13.4679 4.4714 13.5941 5.11227 13.5941 5.75948V7.73085H14.5702ZM8.71351 2.80243C7.93686 2.80243 7.19202 3.11397 6.64285 3.66853C6.09367 4.22308 5.78515 4.97522 5.78515 5.75948V7.73085H11.6419V5.75948C11.6419 4.97522 11.3334 4.22308 10.7842 3.66853C10.235 3.11397 9.49017 2.80243 8.71351 2.80243Z" fill="#88A565"/>
</svg>
