<svg width="17" height="22" viewBox="0 0 17 22" fill="none" xmlns="http://www.w3.org/2000/svg">
<path d="M8.71351 16.6274C8.19575 16.6274 7.69919 16.4197 7.33307 16.05C6.96695 15.6803 6.76127 15.1789 6.76127 14.656C6.76127 13.5619 7.63002 12.6847 8.71351 12.6847C9.23128 12.6847 9.72784 12.8924 10.094 13.2621C10.4601 13.6318 10.6658 14.1332 10.6658 14.656C10.6658 15.1789 10.4601 15.6803 10.094 16.05C9.72784 16.4197 9.23128 16.6274 8.71351 16.6274ZM14.5702 19.5845V9.72761H2.85678V19.5845H14.5702ZM14.5702 7.75624C15.088 7.75624 15.5846 7.96394 15.9507 8.33364C16.3168 8.70335 16.5225 9.20477 16.5225 9.72761V19.5845C16.5225 20.1073 16.3168 20.6087 15.9507 20.9784C15.5846 21.3481 15.088 21.5558 14.5702 21.5558H2.85678C2.33902 21.5558 1.84246 21.3481 1.47634 20.9784C1.11022 20.6087 0.904541 20.1073 0.904541 19.5845V9.72761C0.904541 8.6335 1.77329 7.75624 2.85678 7.75624H3.83291V5.78487C3.83291 4.47777 4.34711 3.22421 5.2624 2.29995C6.1777 1.37569 7.4191 0.856445 8.71351 0.856445C9.35445 0.856445 9.9891 0.983923 10.5812 1.2316C11.1734 1.47928 11.7114 1.8423 12.1646 2.29995C12.6178 2.75759 12.9773 3.3009 13.2226 3.89884C13.4679 4.49679 13.5941 5.13766 13.5941 5.78487V7.75624H14.5702ZM8.71351 2.82782C7.93686 2.82782 7.19202 3.13936 6.64285 3.69392C6.09367 4.24847 5.78515 5.00061 5.78515 5.78487V7.75624H11.6419V5.78487C11.6419 5.00061 11.3334 4.24847 10.7842 3.69392C10.235 3.13936 9.49017 2.82782 8.71351 2.82782Z" fill="#88A565"/>
</svg>
