<svg width="25" height="24" viewBox="0 0 25 24" fill="none" xmlns="http://www.w3.org/2000/svg">
<g clip-path="url(#clip0_67_411)">
<path d="M17.1107 1.47853C17.5233 1.47853 17.9189 1.6343 18.2106 1.91158C18.5024 2.18886 18.6662 2.56493 18.6662 2.95706V20.6994C18.6662 21.0915 18.5024 21.4676 18.2106 21.7449C17.9189 22.0221 17.5233 22.1779 17.1107 22.1779H7.77756C7.36501 22.1779 6.96935 22.0221 6.67763 21.7449C6.38592 21.4676 6.22203 21.0915 6.22203 20.6994V2.95706C6.22203 2.56493 6.38592 2.18886 6.67763 1.91158C6.96935 1.6343 7.36501 1.47853 7.77756 1.47853H17.1107ZM7.77756 0C6.95245 0 6.16115 0.311546 5.57771 0.866102C4.99427 1.42066 4.6665 2.1728 4.6665 2.95706V20.6994C4.6665 21.4837 4.99427 22.2358 5.57771 22.7903C6.16115 23.3449 6.95245 23.6564 7.77756 23.6564H17.1107C17.9358 23.6564 18.7271 23.3449 19.3106 22.7903C19.894 22.2358 20.2218 21.4837 20.2218 20.6994V2.95706C20.2218 2.1728 19.894 1.42066 19.3106 0.866102C18.7271 0.311546 17.9358 0 17.1107 0L7.77756 0Z" fill="#88A565"/>
<path d="M12.4442 20.6992C12.8567 20.6992 13.2524 20.5435 13.5441 20.2662C13.8358 19.9889 13.9997 19.6128 13.9997 19.2207C13.9997 18.8286 13.8358 18.4525 13.5441 18.1752C13.2524 17.898 12.8567 17.7422 12.4442 17.7422C12.0316 17.7422 11.636 17.898 11.3443 18.1752C11.0526 18.4525 10.8887 18.8286 10.8887 19.2207C10.8887 19.6128 11.0526 19.9889 11.3443 20.2662C11.636 20.5435 12.0316 20.6992 12.4442 20.6992Z" fill="#88A565"/>
</g>
<defs>
<clipPath id="clip0_67_411">
<rect width="24.8884" height="23.6564" fill="white"/>
</clipPath>
</defs>
</svg>
